<?xml version="1.0" standalone="no"?>
<!DOCTYPE svg PUBLIC "-//W3C//DTD SVG 20010904//EN"
 "http://www.w3.org/TR/2001/REC-SVG-20010904/DTD/svg10.dtd">
<svg version="1.0" xmlns="http://www.w3.org/2000/svg"
 width="1380.000000pt" height="1380.000000pt" viewBox="0 0 1380.000000 1380.000000"
 preserveAspectRatio="xMidYMid meet">

<g transform="translate(0.000000,1380.000000) scale(0.100000,-0.100000)"
fill="#000000" stroke="none">
<path d="M9319 10852 c-76 -26 -142 -73 -189 -137 -22 -30 -50 -59 -61 -66
-33 -17 -79 -13 -134 12 -39 18 -68 23 -135 24 -75 0 -93 -4 -152 -32 -84 -39
-142 -97 -181 -180 -49 -105 -45 -142 62 -603 50 -217 91 -402 91 -411 0 -16
-19 -18 -192 -21 l-193 -3 -63 -34 c-60 -32 -92 -62 -137 -124 l-20 -28 -225
178 c-124 97 -398 314 -610 481 -212 167 -400 311 -419 319 -21 9 -47 12 -67
9 -22 -5 -139 -90 -368 -271 -185 -146 -339 -265 -341 -265 -3 0 -5 148 -5
330 l0 329 -31 36 c-18 20 -47 39 -70 45 -26 7 -514 10 -1522 8 -1397 -3
-1484 -4 -1510 -21 -15 -9 -35 -29 -44 -44 -17 -26 -18 -158 -18 -2583 0
-2518 0 -2555 20 -2587 38 -63 34 -63 549 -63 l466 0 2 -1069 3 -1069 24 -26
c14 -15 41 -31 60 -37 24 -7 939 -9 2826 -7 2684 3 2792 4 2819 21 15 10 36
37 47 60 18 40 19 86 19 1259 l0 1217 38 6 c692 114 1246 727 1333 1477 19
162 6 456 -25 597 -58 260 -156 488 -289 669 -21 30 -37 55 -35 56 1 1 20 11
42 21 53 27 119 95 147 152 24 48 24 50 24 383 l0 335 -28 57 c-33 67 -90 121
-166 157 -53 25 -65 26 -243 29 -104 2 -188 6 -188 10 0 4 41 185 92 402 107
459 114 521 66 622 -57 123 -171 204 -304 214 -59 5 -82 2 -158 -23 -100 -33
-127 -32 -161 6 -13 14 -45 50 -71 79 -93 104 -246 146 -375 104z m155 -258
c8 -3 40 -37 71 -74 46 -57 68 -75 132 -107 71 -35 84 -38 157 -37 63 0 97 7
150 27 59 23 74 26 103 16 40 -13 73 -53 73 -88 0 -21 -80 -375 -194 -866 -6
-22 -35 -22 -858 -16 l-216 1 -21 88 c-184 794 -183 790 -165 828 12 24 30 42
53 52 33 13 40 13 81 -2 141 -54 230 -56 336 -5 57 27 83 49 171 152 26 31 38
37 71 37 22 0 47 -3 56 -6z m-2342 -980 c227 -179 513 -404 635 -500 l222
-174 3 -203 c3 -182 5 -207 25 -249 28 -62 94 -132 149 -158 24 -12 44 -24 44
-27 0 -3 -27 -46 -61 -96 -425 -635 -393 -1511 76 -2112 107 -137 251 -269
390 -360 206 -135 434 -216 678 -240 l67 -7 0 -1144 0 -1144 -735 0 -735 0 0
1173 c0 989 -2 1186 -15 1264 -41 252 -151 469 -330 649 -132 132 -272 221
-449 283 -122 43 -238 62 -387 62 -244 0 -460 -67 -662 -205 l-67 -46 0 1494
0 1493 363 286 c199 157 365 286 369 286 4 1 193 -146 420 -325z m-1922 -11
c1 -67 1 -611 1 -620 -1 -10 -176 -13 -841 -13 l-840 0 0 320 0 320 840 0
c462 0 840 -3 840 -7z m5376 -446 l24 -28 0 -265 0 -266 -29 -29 c-29 -29 -30
-29 -153 -29 -68 -1 -575 0 -1128 0 l-1005 1 -22 21 c-23 21 -23 23 -23 298 0
289 1 294 45 319 14 7 341 10 1143 8 l1124 -2 24 -28z m-211 -948 c169 -200
279 -425 337 -693 19 -87 22 -131 22 -321 0 -206 -2 -228 -28 -340 -134 -573
-544 -993 -1065 -1091 -129 -24 -383 -15 -511 19 -213 56 -414 172 -574 331
-104 103 -154 167 -225 284 -94 156 -162 342 -198 537 -24 127 -23 418 1 540
57 296 180 554 351 743 l57 62 886 0 887 0 60 -71z m-6705 -154 l0 -85 -85 0
-85 0 0 85 0 85 85 0 85 0 0 -85z m790 0 l0 -85 -85 0 -85 0 0 85 0 85 85 0
85 0 0 -85z m790 0 l0 -85 -85 0 -85 0 0 85 0 85 85 0 85 0 0 -85z m-1570
-990 l0 -85 -85 0 -85 0 0 85 0 85 85 0 85 0 0 -85z m790 0 l0 -85 -85 0 -85
0 0 85 0 85 85 0 85 0 0 -85z m788 -2 l3 -83 -86 0 -85 0 0 85 0 86 83 -3 82
-3 3 -82z m1715 -727 c302 -90 518 -304 623 -616 l29 -85 3 -1215 2 -1215
-912 0 -913 0 -5 940 c-3 517 -3 954 -2 971 4 31 6 32 60 36 48 4 60 10 89 41
l33 37 0 388 0 389 37 47 c78 100 265 227 399 270 117 38 177 46 324 42 121
-3 160 -8 233 -30z m-3288 -271 l0 -80 -82 -3 -83 -3 0 86 0 86 83 -3 82 -3 0
-80z m793 3 l-3 -83 -84 0 -84 0 -1 83 -1 82 88 0 88 0 -3 -82z m782 -3 l0
-85 -80 0 -80 0 0 85 0 85 80 0 80 0 0 -85z m280 -1890 l0 -975 -735 0 -735 0
0 975 0 975 735 0 735 0 0 -975z"/>
<path d="M6625 9291 c-217 -36 -397 -162 -498 -349 -163 -303 -62 -682 232
-874 111 -72 209 -101 351 -102 133 -1 219 21 330 81 90 50 215 177 263 270
102 196 103 429 0 626 -79 151 -254 290 -417 332 -75 19 -196 26 -261 16z
m206 -267 c152 -45 261 -170 291 -333 31 -168 -74 -362 -239 -439 -52 -24 -69
-27 -168 -27 -104 0 -114 2 -175 32 -168 83 -266 272 -231 444 24 113 95 219
186 277 93 59 229 78 336 46z"/>
<path d="M9386 7950 c-63 -19 -96 -76 -96 -164 l0 -55 -52 -24 c-180 -83 -285
-303 -234 -492 49 -183 191 -305 377 -325 46 -4 93 -12 104 -16 66 -24 114
-93 115 -163 0 -55 -36 -118 -84 -146 -41 -24 -49 -25 -227 -25 -155 0 -189
-3 -219 -18 -43 -21 -80 -75 -80 -117 0 -42 37 -96 80 -117 26 -14 60 -18 133
-18 l97 0 0 -61 c0 -56 3 -64 33 -94 44 -44 93 -53 143 -29 56 28 74 59 81
140 6 69 6 71 39 83 92 33 207 158 241 260 25 78 24 218 -4 287 -29 75 -77
139 -141 190 -72 56 -142 82 -249 93 -93 10 -122 24 -160 81 -46 67 -42 148
10 207 51 58 74 63 279 63 158 0 188 2 217 18 65 35 89 118 51 179 -31 51 -65
63 -178 63 l-99 0 -6 60 c-6 72 -32 112 -87 134 -45 18 -44 18 -84 6z"/>
</g>
</svg>
